<svg xmlns="http://www.w3.org/2000/svg" viewBox="1.254 13.374 34.5 34.44">
  <path d="M19 13.77h12.192a4.06 4.06 0 0 1 4.095 4.095v12.192a16.18 16.18 0 0 1-16.176 16.176h-.092a16.18 16.18 0 0 1-11.45-4.73 16.17 16.17 0 0 1-4.744-11.444c0-8.964 7.23-16.194 16.176-16.286z" fill="#25c16f"/>
  <path d="M19 21a7.433 7.433 0 0 0-7.433 7.433v5.054a2.53 2.53 0 0 0 2.472 2.472h2.103v-5.8h-2.84v-1.623c.173-3.057 2.702-5.447 5.764-5.447s5.6 2.4 5.764 5.447v1.623h-2.877v5.8h1.9v.092a2.324 2.324 0 0 1-2.287 2.287h-2.27c-.184 0-.387.092-.387.277.01.2.177.378.387.387h2.287a2.97 2.97 0 0 0 2.951-2.951v-.184a2.444 2.444 0 0 0 1.9-2.398v-4.943C26.537 24.338 23.217 21 19 21z" fill="#fff"/>
</svg>
